<?xml version="1.0" encoding="UTF-8"?>
<svg width="64pt" version="1.1" xmlns="http://www.w3.org/2000/svg" height="64pt" viewBox="0 0 64 64" xmlns:xlink="http://www.w3.org/1999/xlink">
 <defs>
  <clipPath id="Clip0">
   <path d="M0 0 L0 64 L64 64 L64 0 L0 0 Z" transform="translate(0, 0)"/>
  </clipPath>
 </defs>
 <g id="Background">
  <g id="Group1" clip-path="url(#Clip0)">
   <path style="fill:#ca5252; fill-rule:nonzero;stroke:none;" d="M64 32 C64 49.6729 49.6729 64 32 64 C14.3271 64 0 49.6729 0 32 C0 14.3271 14.3271 0 32 0 C49.6729 0 64 14.3271 64 32 " transform="translate(0, 0)"/>
   <path style="fill:#aa4846; fill-rule:nonzero;stroke:none;" d="M0 0.1552 C0.0068 0.0576 0.0107 0 0.0137 0 C0.0156 0 0.0166 0.0302 0.0166 0.0976 L0 0.1552 " transform="translate(39.9834, 11.0186)"/>
   <path style="fill:#aa4846; fill-rule:nonzero;stroke:none;" d="M0.0176 0.1611 L0 0.0986 C0 0.0312 0.001 0 0.0029 0 C0.0059 0 0.0107 0.0595 0.0176 0.1611 " transform="translate(24, 11.0176)"/>
   <path style="fill:#aa4846; fill-rule:nonzero;stroke:none;" d="M40 30.7568 L10 30.7568 C4.4775 30.7568 0 26.2793 0 20.7568 C0 15.748 3.6865 11.6113 8.4922 10.8828 C9.667 6.167 12.9297 2.2822 17.2402 0.2627 L17.2471 0.2636 C17.4795 0.164 17.7207 0.1201 17.96 0.1201 C19.0039 0.1201 20 0.9746 20 1.873 L20 10.373 C20 11.2021 19.3281 11.7568 18.5 11.7568 L15.4385 11.7568 C13.9668 11.7568 13.5557 12.8838 14.5254 14.1181 L22.2383 23.9472 C22.7227 24.5644 23.3613 24.873 24 24.873 C24.6387 24.873 25.2773 24.5644 25.7617 23.9472 L33.4746 14.1181 C34.4443 12.8838 34.0332 11.7568 32.5615 11.7568 L29.5 11.7568 C28.6719 11.7568 28 11.2021 28 10.373 L28 1.873 C28 1.0156 28.5791 0 29.6953 0 C29.9736 0 30.2852 0.0634 30.6299 0.208 C36.1533 2.7295 40 8.2881 40 14.7568 C44.418 14.7568 48 18.3388 48 22.7568 C48 27.1748 44.418 30.7568 40 30.7568 " transform="translate(8, 17.2432)"/>
   <path style="fill:#ffffff; fill-rule:nonzero;stroke:none;" d="M40 15.2725 C40 8.8038 36.1533 3.2452 30.6299 0.7237 C28.9033 0 28 1.3184 28 2.3887 L28 10.8887 C28 11.7178 28.6719 12.2725 29.5 12.2725 L32.5615 12.2725 C34.0332 12.2725 34.4443 13.3995 33.4746 14.6338 L25.7617 24.4629 C24.793 25.6983 23.207 25.6983 22.2383 24.4629 L14.5254 14.6338 C13.5557 13.3995 13.9668 12.2725 15.4385 12.2725 L18.5 12.2725 C19.3281 12.2725 20 11.7178 20 10.8887 L20 2.3887 C20 1.2842 18.4961 0.2471 17.2471 0.7793 L17.2402 0.7784 C12.9297 2.7979 9.667 6.6827 8.4922 11.3985 C3.6865 12.127 0 16.2637 0 21.2725 C0 26.795 4.4775 31.2725 10 31.2725 L40 31.2725 C44.418 31.2725 48 27.6905 48 23.2725 C48 18.8545 44.418 15.2725 40 15.2725 Z" transform="translate(8, 14.7275)"/>
   <path style="fill:#9184ba; fill-rule:nonzero;stroke:none;" d="M0 0.21778 L0.0166 0.16016 C0.0166 0 0.0107 0.04786 0 0.21778 Z" transform="translate(39.9834, 8.95605)"/>
   <path style="fill:#9184ba; fill-rule:nonzero;stroke:none;" d="M0 0.16308 L0.0176 0.22558 C0.0059 0.05175 0 0 0 0.16308 Z" transform="translate(24, 8.95313)"/>
  </g>
 </g>
</svg>
