<?xml version="1.0" encoding="UTF-8"?>
<svg width="64pt" version="1.1" xmlns="http://www.w3.org/2000/svg" height="64pt" viewBox="0 0 64 64" xmlns:xlink="http://www.w3.org/1999/xlink">
 <defs>
  <clipPath id="Clip0">
   <path d="M0 0 L0 64 L64 64 L64 0 L0 0 Z" transform="translate(0, 0)"/>
  </clipPath>
 </defs>
 <g id="Background">
  <g id="Group1" clip-path="url(#Clip0)">
   <path style="fill:#485a6d; fill-rule:nonzero;stroke:none;" d="M64 32 C64 49.6729 49.6729 64 32 64 C14.3271 64 0 49.6729 0 32 C0 14.3271 14.3271 0 32 0 C49.6729 0 64 14.3271 64 32 " transform="translate(0, 0)"/>
   <path style="fill:#3f4e5c; fill-rule:nonzero;stroke:none;" d="M19.7129 48 L19.6875 47.999 L19.5889 47.9971 C12.625 47.9619 4.3623 44.9609 0 40.1924 C1.7031 39.3242 5.6494 38.4805 7.8076 37.543 C11.8057 35.8057 13.1514 33.0596 13.5049 30.7676 C11.1231 28.709 9.1924 25.6563 8.0049 22.3291 C6.335 20.5107 5.3418 18.5225 5.3418 16.8818 C5.3418 15.7168 5.8516 14.9404 6.7354 14.4121 C7.0781 6.4141 12.8086 0.043 19.8604 0.0039 L19.9258 0 L20.0908 0.0098 C27.1875 0.1104 32.9258 6.6182 33.1289 14.7236 C33.7363 15.2354 34.084 15.9268 34.084 16.8818 C34.084 18.2764 33.3623 19.9219 32.1231 21.502 C30.918 25.3184 28.7275 28.8594 25.9746 31.0742 C26.4004 33.3008 27.7969 35.8828 31.6182 37.543 C33.7764 38.4805 37.7227 39.3242 39.4258 40.1924 C35.0371 44.9893 26.7275 48 19.7129 48 " transform="translate(12.2871, 10)"/>
   <path style="fill:#ffffff; fill-rule:nonzero;stroke:none;" d="M31.6182 37.543 C27.7969 35.8828 26.4004 33.3008 25.9746 31.0742 C28.7275 28.8594 30.918 25.3184 32.1231 21.502 C33.3623 19.9219 34.084 18.2764 34.084 16.8818 C34.084 15.9268 33.7363 15.2354 33.1289 14.7236 C32.9258 6.6182 27.1875 0.11035 20.0908 0.00977 L19.9258 0 L19.8604 0.00391 C12.8086 0.04297 7.0781 6.4141 6.7354 14.4121 C5.8516 14.9404 5.3418 15.7168 5.3418 16.8818 C5.3418 18.5225 6.335 20.5107 8.0049 22.3291 C9.1924 25.6563 11.1231 28.709 13.5049 30.7676 C13.1514 33.0596 11.8057 35.8057 7.8076 37.543 C5.6494 38.4805 1.7031 39.3242 0 40.1924 C4.3623 44.9609 12.625 47.9619 19.5889 47.9971 L19.6875 47.999 L19.7129 48 C26.7275 48 35.0371 44.9893 39.4258 40.1924 C37.7227 39.3242 33.7764 38.4805 31.6182 37.543 Z" transform="translate(12.2871, 8)"/>
  </g>
 </g>
</svg>
