<?xml version="1.0" encoding="UTF-8"?>
<svg width="64pt" version="1.1" xmlns="http://www.w3.org/2000/svg" height="64pt" viewBox="0 0 64 64" xmlns:xlink="http://www.w3.org/1999/xlink">
 <defs>
  <clipPath id="Clip0">
   <path d="M0 0 L0 64 L64 64 L64 0 L0 0 Z" transform="translate(0, 0)"/>
  </clipPath>
 </defs>
 <g id="Background">
  <g id="Group1" clip-path="url(#Clip0)">
   <path style="fill:#ffffff; fill-rule:nonzero;stroke:none;" d="M40 15.2725 C40 8.8038 36.1533 3.2452 30.6299 0.7237 C28.9033 0 28 1.3184 28 2.3887 L28 10.8887 C28 11.7178 28.6719 12.2725 29.5 12.2725 L32.5615 12.2725 C34.0332 12.2725 34.4443 13.3995 33.4746 14.6338 L25.7617 24.4629 C24.793 25.6983 23.207 25.6983 22.2383 24.4629 L14.5254 14.6338 C13.5557 13.3995 13.9668 12.2725 15.4385 12.2725 L18.5 12.2725 C19.3281 12.2725 20 11.7178 20 10.8887 L20 2.3887 C20 1.2842 18.4961 0.2471 17.2471 0.7793 C17.2451 0.7803 17.2422 0.7774 17.2402 0.7784 C12.9297 2.7979 9.667 6.6827 8.4922 11.3985 C3.6865 12.127 0 16.2637 0 21.2725 C0 26.795 4.4775 31.2725 10 31.2725 L40 31.2725 C44.418 31.2725 48 27.6905 48 23.2725 C48 18.8545 44.418 15.2725 40 15.2725 Z" transform="translate(8, 14.7275)"/>
   <path style="fill:#ffffff; fill-rule:nonzero;stroke:none;" d="M0 0.16308 C0 0.17968 0.0146 0.208 0.0176 0.22558 C0.0059 0.05175 0 0 0 0.16308 Z" transform="translate(24, 8.95313)"/>
   <path style="fill:#ffffff; fill-rule:nonzero;stroke:none;" d="M0 0.21778 C0.0029 0.20118 0.0166 0.17481 0.0166 0.16016 C0.0166 0 0.0107 0.04786 0 0.21778 Z" transform="translate(39.9834, 8.95605)"/>
   <path style="fill:#485a6d; fill-rule:nonzero;stroke:none;" d="M48 46 L18 46 C12.4775 46 8 41.5225 8 36 C8 30.9912 11.6865 26.8545 16.4922 26.126 C17.667 21.4102 20.9297 17.5254 25.2402 15.5059 C25.2422 15.5049 25.2451 15.5078 25.2471 15.5068 C26.4961 14.9746 28 16.0117 28 17.1162 L28 25.6162 C28 26.4453 27.3281 27 26.5 27 L23.4385 27 C21.9668 27 21.5557 28.127 22.5254 29.3613 L30.2383 39.1904 C31.207 40.4258 32.793 40.4258 33.7617 39.1904 L41.4746 29.3613 C42.4443 28.127 42.0332 27 40.5615 27 L37.5 27 C36.6719 27 36 26.4453 36 25.6162 L36 17.1162 C36 16.0459 36.9033 14.7275 38.6299 15.4512 C44.1533 17.9727 48 23.5313 48 30 C52.418 30 56 33.582 56 38 C56 42.418 52.418 46 48 46 Z M24.0176 9.17871 C24.0146 9.16113 24 9.13281 24 9.11621 C24 8.95313 24.0059 9.00488 24.0176 9.17871 Z M40 9.11621 C40 9.13086 39.9863 9.15723 39.9834 9.17383 C39.9941 9.00391 40 8.95605 40 9.11621 Z M32 0 C14.3271 0 0 14.3271 0 32 C0 49.6729 14.3271 64 32 64 C49.6729 64 64 49.6729 64 32 C64 14.3271 49.6729 0 32 0 Z" transform="translate(0, 0)"/>
  </g>
 </g>
</svg>
