<?xml version="1.0" encoding="UTF-8"?>
<svg width="64pt" version="1.1" xmlns="http://www.w3.org/2000/svg" height="64pt" viewBox="0 0 64 64" xmlns:xlink="http://www.w3.org/1999/xlink">
 <defs>
  <clipPath id="Clip0">
   <path d="M0 0 L0 64 L64 64 L64 0 L0 0 Z" transform="translate(0, 0)"/>
  </clipPath>
 </defs>
 <g id="Background">
  <g id="Group1" clip-path="url(#Clip0)">
   <path style="fill:#ffffff; fill-rule:nonzero;stroke:none;" d="M25.9746 31.0742 C28.7275 28.8594 30.918 25.3184 32.1231 21.502 C33.3623 19.9219 34.084 18.2764 34.084 16.8818 C34.084 15.9268 33.7363 15.2354 33.1289 14.7236 C32.9258 6.6182 27.1875 0.11035 20.0908 0.00977 C20.0352 0.00879 19.9815 0 19.9258 0 C19.9033 0 19.8828 0.00391 19.8604 0.00391 C12.8086 0.04297 7.0781 6.4141 6.7354 14.4121 C5.8516 14.9404 5.3418 15.7168 5.3418 16.8818 C5.3418 18.5225 6.335 20.5107 8.0049 22.3291 C9.1924 25.6563 11.1231 28.709 13.5049 30.7676 C13.1514 33.0596 11.8057 35.8057 7.8076 37.543 C5.6494 38.4805 1.7031 39.3242 0 40.1924 C4.3623 44.9609 12.625 47.9619 19.5889 47.9971 L19.6875 47.999 C19.6963 47.999 19.7041 48 19.7129 48 C26.7275 48 35.0371 44.9893 39.4258 40.1924 C37.7227 39.3242 33.7764 38.4805 31.6182 37.543 C27.7969 35.8828 26.4004 33.3008 25.9746 31.0742 Z" transform="translate(12.2871, 8)"/>
   <path style="fill:#485a6d; fill-rule:nonzero;stroke:none;" d="M32 56 C31.9912 56 31.9834 55.999 31.9746 55.999 L31.876 55.9971 C24.9121 55.9619 16.6494 52.9609 12.2871 48.1924 C13.9902 47.3242 17.9365 46.4805 20.0947 45.543 C24.0928 43.8057 25.4385 41.0596 25.792 38.7676 C23.4102 36.709 21.4795 33.6563 20.292 30.3291 C18.6221 28.5107 17.6289 26.5225 17.6289 24.8818 C17.6289 23.7168 18.1387 22.9404 19.0225 22.4121 C19.3652 14.4141 25.0957 8.04297 32.1475 8.00391 C32.1699 8.00391 32.1904 8 32.2129 8 C32.2686 8 32.3223 8.00879 32.3779 8.00977 C39.4746 8.11035 45.2129 14.6182 45.416 22.7236 C46.0234 23.2354 46.3711 23.9268 46.3711 24.8818 C46.3711 26.2764 45.6494 27.9219 44.4102 29.502 C43.2051 33.3184 41.0146 36.8594 38.2617 39.0742 C38.6875 41.3008 40.084 43.8828 43.9053 45.543 C46.0635 46.4805 50.0098 47.3242 51.7129 48.1924 C47.3242 52.9893 39.0146 56 32 56 Z M32 0 C14.3271 0 0 14.3271 0 32 C0 49.6729 14.3271 64 32 64 C49.6729 64 64 49.6729 64 32 C64 14.3271 49.6729 0 32 0 Z" transform="translate(0, 0)"/>
  </g>
 </g>
</svg>
