<?xml version="1.0" encoding="UTF-8" standalone="no"?>
<!-- Created with Inkscape (http://www.inkscape.org/) -->

<svg
   xmlns:dc="http://purl.org/dc/elements/1.1/"
   xmlns:cc="http://creativecommons.org/ns#"
   xmlns:rdf="http://www.w3.org/1999/02/22-rdf-syntax-ns#"
   xmlns:svg="http://www.w3.org/2000/svg"
   xmlns="http://www.w3.org/2000/svg"
   version="1.1"
   width="80"
   height="80"
   id="svg2"
   xml:space="preserve"><metadata
     id="metadata8"><rdf:RDF><cc:Work
         rdf:about=""><dc:format>image/svg+xml</dc:format><dc:type
           rdf:resource="http://purl.org/dc/dcmitype/StillImage" /><dc:title></dc:title></cc:Work></rdf:RDF></metadata><defs
     id="defs6" /><g
     transform="matrix(1.25,0,0,-1.25,0,80)"
     id="g10"><g
       transform="scale(0.1,0.1)"
       id="g12"><path
         d="M 640,320 C 640,143.27 496.73,0 320,0 143.27,0 0,143.27 0,320 0,496.73 143.27,640 320,640 496.73,640 640,496.73 640,320"
         id="path14"
         style="fill:#495672;fill-opacity:1;fill-rule:nonzero;stroke:none" /><path
         d="m 320.02213,479.08329 c -4.32834,0 -8.62333,-0.22475 -12.86002,-0.60898 -28.6173,-1.15634 -56.33158,-6.19189 -82.67639,-14.5615 l 36.39262,-38.7015 c 17.28998,10.8867 37.50879,17.16375 59.14379,17.16375 64.13175,0 115.73513,-54.82373 115.73513,-123.02533 0,-23.02633 -5.8777,-44.55403 -16.13876,-62.95221 l 24.78206,-26.40997 c 16.26536,25.53218 25.82336,56.30686 25.82336,89.36218 0,36.97881 -11.92034,71.05148 -31.8627,98.16558 47.10513,-21.54819 87.92592,-55.5624 118.91226,-98.16558 -28.77386,-39.56332 -66.07438,-71.78633 -108.9678,-93.45932 l 24.83378,-26.41013 c 47.16504,26.02546 87.77268,63.69254 118.39082,109.4051 0.0315,0.0506 0.11682,0.0597 0.1497,0.11068 0,0.0127 0,0.0434 0,0.0551 l 0.20815,0.3876 6.76895,9.7446 -6.9772,10.46433 c -58.0809,86.83225 -152.15438,144.54672 -258.90978,148.82665 -4.21492,0.38026 -8.45,0.60896 -12.75498,0.60896 z M 166.85148,439.10836 C 119.68474,413.10773 79.0738,375.51914 48.460649,329.81402 c -0.05309,-0.0633 -0.116821,-0.10278 -0.149744,-0.16599 0,-4e-5 -0.08496,-0.19768 -0.09559,-0.22144 l -6.872389,-9.96612 6.975617,-10.40897 C 106.44442,222.15158 200.66966,164.31856 307.54156,160.1144 c 4.11668,-0.36286 8.29177,-0.55368 12.49511,-0.55368 4.19835,0 8.33022,0.19145 12.4435,0.55368 28.77554,1.12703 56.61482,6.13517 83.09291,14.56159 l -36.39262,38.7014 c -17.28659,-10.90827 -37.5038,-17.16376 -59.14379,-17.16376 -64.13186,0 -115.78845,54.93447 -115.78845,123.1361 0,23.00719 5.88609,44.47014 16.13877,62.84149 l -24.78207,26.41002 c -16.27034,-25.51642 -25.82336,-56.19734 -25.82336,-89.25151 0,-36.9775 11.91207,-71.0956 31.8626,-98.22097 -47.10173,21.57876 -87.9342,55.62627 -118.912264,98.22097 28.772264,39.55981 66.064414,71.70208 108.969494,93.34867 l -24.83537,26.40993 z m 153.17065,-56.58502 c -5.78446,0 -11.37224,-0.90973 -16.66021,-2.54688 l 73.77312,-78.39958 c 1.53598,5.61453 2.34237,11.57531 2.34237,17.71742 0,34.9263 -26.61307,63.22904 -59.45528,63.22904 z m -57.1146,-45.51162 c -1.54938,-5.63391 -2.39399,-11.55131 -2.39399,-17.71742 0,-34.92629 26.66628,-63.22904 59.50859,-63.22904 5.76439,0 11.3372,0.86469 16.6069,2.49152 l -73.7215,78.45494 z"
         id="path3755"
         style="font-size:medium;font-style:normal;font-variant:normal;font-weight:normal;font-stretch:normal;text-indent:0;text-align:start;text-decoration:none;line-height:normal;letter-spacing:normal;word-spacing:normal;text-transform:none;direction:ltr;block-progression:tb;writing-mode:lr-tb;text-anchor:start;baseline-shift:baseline;color:#000000;fill:#ffffff;fill-opacity:1;stroke:none;stroke-width:20;marker:none;visibility:visible;display:inline;overflow:visible;enable-background:accumulate;font-family:Sans;-inkscape-font-specification:Sans" /></g></g></svg>